<svg width="81" height="27" viewBox="0 0 81 27" fill="none" xmlns="http://www.w3.org/2000/svg">
<path d="M20.968 5.28C21.56 5.28 22.036 5.464 22.396 5.832C22.756 6.2 22.936 6.688 22.936 7.296V12H21.784V7.332C21.784 6.892 21.696 6.576 21.52 6.384C21.352 6.184 21.072 6.084 20.68 6.084C20.088 6.084 19.54 6.36 19.036 6.912C19.044 6.968 19.048 7.048 19.048 7.152V12H17.92V7.212C17.92 6.852 17.828 6.576 17.644 6.384C17.46 6.184 17.2 6.084 16.864 6.084C16.568 6.084 16.28 6.16 16 6.312C15.728 6.456 15.448 6.684 15.16 6.996V12H14.02V7.68C14.02 6.52 13.972 5.82 13.876 5.58C14.012 5.516 14.152 5.464 14.296 5.424C14.448 5.376 14.58 5.352 14.692 5.352C14.852 5.352 14.968 5.416 15.04 5.544C15.112 5.664 15.152 5.86 15.16 6.132C15.456 5.836 15.764 5.62 16.084 5.484C16.404 5.348 16.768 5.28 17.176 5.28C17.544 5.28 17.872 5.364 18.16 5.532C18.448 5.692 18.668 5.916 18.82 6.204C19.116 5.884 19.436 5.652 19.78 5.508C20.132 5.356 20.528 5.28 20.968 5.28ZM32.0453 8.244C32.0453 8.404 32.0333 8.612 32.0093 8.868H27.4013C27.4333 9.628 27.6093 10.22 27.9293 10.644C28.2493 11.06 28.6893 11.268 29.2493 11.268C29.6253 11.268 29.9373 11.192 30.1853 11.04C30.4413 10.888 30.6893 10.624 30.9293 10.248C30.9933 10.16 31.0813 10.116 31.1933 10.116C31.3773 10.116 31.6173 10.224 31.9133 10.44C31.7053 10.968 31.3693 11.38 30.9053 11.676C30.4413 11.972 29.8893 12.12 29.2493 12.12C28.6333 12.12 28.0973 11.984 27.6413 11.712C27.1933 11.432 26.8493 11.036 26.6093 10.524C26.3693 10.004 26.2493 9.392 26.2493 8.688C26.2493 7.624 26.5173 6.792 27.0533 6.192C27.5973 5.584 28.3453 5.28 29.2973 5.28C30.1693 5.28 30.8453 5.54 31.3253 6.06C31.8053 6.58 32.0453 7.308 32.0453 8.244ZM30.8813 8.1C30.8813 6.78 30.3413 6.12 29.2613 6.12C28.7253 6.12 28.3013 6.288 27.9893 6.624C27.6773 6.96 27.4893 7.452 27.4253 8.1H30.8813ZM38.0259 5.316C38.6579 5.316 38.9739 5.552 38.9739 6.024C38.9739 6.216 38.9219 6.372 38.8179 6.492C38.6099 6.388 38.3379 6.336 38.0019 6.336C37.4739 6.336 37.0579 6.532 36.7539 6.924C36.4579 7.308 36.3099 7.84 36.3099 8.52V12H35.1699V5.4H36.3099V6.504C36.4859 6.144 36.7259 5.856 37.0299 5.64C37.3419 5.424 37.6739 5.316 38.0259 5.316Z" fill="black"/>
<path d="M63.9435 4.77424L79.1432 14.7776M79.1432 14.7776L64.1705 25.1176M79.1432 14.7776L1.61065 14.7776" stroke="black" stroke-width="2" stroke-linecap="round" stroke-linejoin="round"/>
</svg>
