<svg width="86" height="197" viewBox="0 0 86 197" fill="none" xmlns="http://www.w3.org/2000/svg">
<path d="M1 74.3101L42.5625 1M42.5625 1L84.125 74.3101M42.5625 1L42.5625 169" stroke="#4D93CD" stroke-width="2" stroke-linecap="round" stroke-linejoin="round"/>
<path d="M16.942 183.16C17.7447 183.16 18.3793 183.393 18.846 183.86C19.3127 184.317 19.546 184.943 19.546 185.736V191H18.594V185.834C18.594 185.227 18.4447 184.761 18.146 184.434C17.8473 184.107 17.418 183.944 16.858 183.944C16.4287 183.944 15.976 184.042 15.5 184.238C15.024 184.425 14.5993 184.677 14.226 184.994V191H13.274V179.926H14.226V184.084C14.6367 183.785 15.0753 183.557 15.542 183.398C16.0087 183.239 16.4753 183.16 16.942 183.16ZM29.0784 186.604C29.0784 186.819 29.069 187.033 29.0504 187.248H23.4784C23.497 188.219 23.7117 188.975 24.1224 189.516C24.5424 190.057 25.121 190.328 25.8584 190.328C26.3624 190.328 26.787 190.23 27.1324 190.034C27.487 189.838 27.781 189.525 28.0144 189.096C28.0797 188.975 28.1777 188.914 28.3084 188.914C28.4577 188.914 28.663 189.003 28.9244 189.18C28.719 189.787 28.341 190.267 27.7904 190.622C27.2397 190.967 26.5957 191.14 25.8584 191.14C25.177 191.14 24.5797 190.981 24.0664 190.664C23.5624 190.337 23.175 189.875 22.9044 189.278C22.6337 188.671 22.4984 187.957 22.4984 187.136C22.4984 185.895 22.8064 184.924 23.4224 184.224C24.0384 183.515 24.883 183.16 25.9564 183.16C26.9364 183.16 27.7017 183.463 28.2524 184.07C28.803 184.677 29.0784 185.521 29.0784 186.604ZM28.0984 186.492C28.0984 184.812 27.3704 183.972 25.9144 183.972C25.205 183.972 24.645 184.187 24.2344 184.616C23.8237 185.045 23.581 185.671 23.5064 186.492H28.0984ZM32.0123 179.926H32.9643V191H32.0123V179.926ZM40.1264 190.062C40.1918 190.109 40.2431 190.179 40.2804 190.272C40.3271 190.356 40.3504 190.445 40.3504 190.538C40.3504 190.715 40.2758 190.841 40.1264 190.916C39.8278 191.065 39.4404 191.14 38.9644 191.14C38.3578 191.14 37.8724 190.977 37.5084 190.65C37.1444 190.314 36.9624 189.866 36.9624 189.306V184.056H35.5064V183.3H36.9624V181.2H37.9144V183.3H39.9304V184.056H37.9144V189.124C37.9144 189.908 38.2504 190.3 38.9224 190.3C39.3518 190.3 39.7531 190.221 40.1264 190.062ZM49.9801 191.14C48.8975 191.14 48.0808 190.804 47.5301 190.132C46.9795 189.46 46.7041 188.461 46.7041 187.136C46.7041 184.485 47.7961 183.16 49.9801 183.16C52.1641 183.16 53.2561 184.485 53.2561 187.136C53.2561 188.461 52.9808 189.46 52.4301 190.132C51.8795 190.804 51.0628 191.14 49.9801 191.14ZM49.9801 190.356C50.7735 190.356 51.3521 190.099 51.7161 189.586C52.0895 189.063 52.2761 188.247 52.2761 187.136C52.2761 186.035 52.0895 185.227 51.7161 184.714C51.3521 184.201 50.7735 183.944 49.9801 183.944C49.1868 183.944 48.6035 184.201 48.2301 184.714C47.8661 185.227 47.6841 186.035 47.6841 187.136C47.6841 188.247 47.8661 189.063 48.2301 189.586C48.6035 190.099 49.1868 190.356 49.9801 190.356ZM59.3861 183.16C60.4314 183.16 61.2294 183.505 61.7801 184.196C62.3307 184.877 62.6061 185.857 62.6061 187.136C62.6061 187.948 62.4614 188.657 62.1721 189.264C61.8921 189.861 61.4814 190.323 60.9401 190.65C60.4081 190.977 59.7827 191.14 59.0641 191.14C58.7094 191.14 58.3501 191.103 57.9861 191.028C57.6314 190.963 57.3141 190.874 57.0341 190.762V194.08H56.0821V185.918C56.0821 184.537 56.0261 183.715 55.9141 183.454C56.2127 183.314 56.4507 183.244 56.6281 183.244C56.8987 183.244 57.0341 183.515 57.0341 184.056V184.112C57.3421 183.804 57.6967 183.571 58.0981 183.412C58.5087 183.244 58.9381 183.16 59.3861 183.16ZM59.0641 190.356C59.8667 190.356 60.4874 190.076 60.9261 189.516C61.3741 188.956 61.5981 188.163 61.5981 187.136C61.5981 185.008 60.8607 183.944 59.3861 183.944C58.9567 183.944 58.5367 184.042 58.1261 184.238C57.7247 184.434 57.3607 184.714 57.0341 185.078V189.936C57.6127 190.216 58.2894 190.356 59.0641 190.356ZM68.7333 183.16C69.7786 183.16 70.5766 183.505 71.1273 184.196C71.6779 184.877 71.9533 185.857 71.9533 187.136C71.9533 187.948 71.8086 188.657 71.5193 189.264C71.2393 189.861 70.8286 190.323 70.2873 190.65C69.7553 190.977 69.1299 191.14 68.4113 191.14C68.0566 191.14 67.6973 191.103 67.3333 191.028C66.9786 190.963 66.6613 190.874 66.3813 190.762V194.08H65.4293V185.918C65.4293 184.537 65.3733 183.715 65.2613 183.454C65.5599 183.314 65.7979 183.244 65.9753 183.244C66.2459 183.244 66.3813 183.515 66.3813 184.056V184.112C66.6893 183.804 67.0439 183.571 67.4453 183.412C67.8559 183.244 68.2853 183.16 68.7333 183.16ZM68.4113 190.356C69.2139 190.356 69.8346 190.076 70.2733 189.516C70.7213 188.956 70.9453 188.163 70.9453 187.136C70.9453 185.008 70.2079 183.944 68.7333 183.944C68.3039 183.944 67.8839 184.042 67.4733 184.238C67.0719 184.434 66.7079 184.714 66.3813 185.078V189.936C66.9599 190.216 67.6366 190.356 68.4113 190.356Z" fill="#4D93CD"/>
</svg>
