<svg width="205" height="133" viewBox="0 0 205 133" fill="none" xmlns="http://www.w3.org/2000/svg">
<g clip-path="url(#clip0_1116_272)">
<path d="M64.0625 108.062L1.69889 66.5M1.69889 66.5L64.0625 24.9375M1.69889 66.5L207.265 66.5" stroke="#4D93CD" stroke-width="2" stroke-linecap="round" stroke-linejoin="round"/>
<path d="M107.854 59.062C107.92 59.1087 107.971 59.1787 108.008 59.272C108.055 59.356 108.078 59.4447 108.078 59.538C108.078 59.7153 108.004 59.8413 107.854 59.916C107.556 60.0653 107.168 60.14 106.692 60.14C106.086 60.14 105.6 59.9767 105.236 59.65C104.872 59.314 104.69 58.866 104.69 58.306V53.056H103.234V52.3H104.69V50.2H105.642V52.3H107.658V53.056H105.642V58.124C105.642 58.908 105.978 59.3 106.65 59.3C107.08 59.3 107.481 59.2207 107.854 59.062ZM113.553 52.3H114.505V60H113.553V52.3ZM113.973 50.886C113.553 50.886 113.343 50.676 113.343 50.256V50.13C113.343 49.71 113.553 49.5 113.973 49.5H114.085C114.505 49.5 114.715 49.71 114.715 50.13V50.256C114.715 50.676 114.505 50.886 114.085 50.886H113.973ZM121.156 48.926H122.108V60H121.156V48.926ZM131.944 52.16C132.98 52.16 133.778 52.496 134.338 53.168C134.907 53.84 135.192 54.792 135.192 56.024C135.192 57.312 134.898 58.32 134.31 59.048C133.722 59.776 132.91 60.14 131.874 60.14C130.885 60.14 130.11 59.846 129.55 59.258C129.466 59.7527 129.303 60 129.06 60C128.78 60 128.547 59.944 128.36 59.832C128.537 59.44 128.626 58.88 128.626 58.152V48.926H129.606V52.874C130.287 52.398 131.067 52.16 131.944 52.16ZM131.874 59.328C132.621 59.328 133.195 59.0433 133.596 58.474C134.007 57.8953 134.212 57.0787 134.212 56.024C134.212 55.0347 134.016 54.274 133.624 53.742C133.232 53.21 132.672 52.944 131.944 52.944C131.085 52.944 130.306 53.21 129.606 53.742V58.292C130.157 58.9827 130.913 59.328 131.874 59.328ZM146.131 58.082C146.131 58.5113 146.164 58.852 146.229 59.104C146.304 59.3467 146.43 59.566 146.607 59.762C146.514 59.8553 146.402 59.93 146.271 59.986C146.15 60.042 146.033 60.07 145.921 60.07C145.734 60.07 145.576 59.9627 145.445 59.748C145.324 59.5333 145.244 59.2393 145.207 58.866C144.918 59.258 144.53 59.5707 144.045 59.804C143.56 60.028 143.051 60.14 142.519 60.14C141.81 60.14 141.24 59.958 140.811 59.594C140.382 59.2207 140.167 58.7353 140.167 58.138C140.167 57.2607 140.592 56.5747 141.441 56.08C142.3 55.5853 143.546 55.3007 145.179 55.226V54.778C145.179 54.162 145.02 53.7047 144.703 53.406C144.395 53.098 143.924 52.944 143.289 52.944C142.878 52.944 142.496 53.0327 142.141 53.21C141.796 53.378 141.422 53.6627 141.021 54.064C140.965 54.12 140.895 54.148 140.811 54.148C140.718 54.148 140.615 54.1107 140.503 54.036C140.391 53.952 140.284 53.8353 140.181 53.686C140.601 53.1913 141.077 52.8133 141.609 52.552C142.15 52.2907 142.724 52.16 143.331 52.16C144.199 52.16 144.88 52.3933 145.375 52.86C145.879 53.3267 146.131 53.966 146.131 54.778V58.082ZM142.589 59.356C143.093 59.356 143.569 59.216 144.017 58.936C144.465 58.656 144.852 58.2593 145.179 57.746V56.01C142.491 56.122 141.147 56.8267 141.147 58.124C141.147 58.9453 141.628 59.356 142.589 59.356ZM158.389 60C158.231 60 158.049 60.0093 157.843 60.028C157.675 60.0467 157.573 60.056 157.535 60.056C157.358 60.056 157.223 59.9813 157.129 59.832L155.323 56.92C155.053 56.4813 154.563 56.276 153.853 56.304L153.209 56.332V60H152.257V48.926H153.209V55.464L153.755 55.45C153.951 55.4407 154.119 55.4033 154.259 55.338C154.399 55.2633 154.525 55.1513 154.637 55.002L156.737 52.3H157.913L155.421 55.352C155.403 55.3707 155.361 55.422 155.295 55.506C155.23 55.5807 155.146 55.646 155.043 55.702C155.501 55.8233 155.832 56.0473 156.037 56.374L158.389 60ZM169.63 55.604C169.63 55.8187 169.62 56.0333 169.602 56.248H164.03C164.048 57.2187 164.263 57.9747 164.674 58.516C165.094 59.0573 165.672 59.328 166.41 59.328C166.914 59.328 167.338 59.23 167.684 59.034C168.038 58.838 168.332 58.5253 168.566 58.096C168.631 57.9747 168.729 57.914 168.86 57.914C169.009 57.914 169.214 58.0027 169.476 58.18C169.27 58.7867 168.892 59.2673 168.342 59.622C167.791 59.9673 167.147 60.14 166.41 60.14C165.728 60.14 165.131 59.9813 164.618 59.664C164.114 59.3373 163.726 58.8753 163.456 58.278C163.185 57.6713 163.05 56.9573 163.05 56.136C163.05 54.8947 163.358 53.924 163.974 53.224C164.59 52.5147 165.434 52.16 166.508 52.16C167.488 52.16 168.253 52.4633 168.804 53.07C169.354 53.6767 169.63 54.5213 169.63 55.604ZM168.65 55.492C168.65 53.812 167.922 52.972 166.466 52.972C165.756 52.972 165.196 53.1867 164.786 53.616C164.375 54.0453 164.132 54.6707 164.058 55.492H168.65Z" fill="#4D93CD"/>
</g>
<defs>
<clipPath id="clip0_1116_272">
<rect width="133" height="205" fill="white" transform="matrix(0 -1 1 0 0 133)"/>
</clipPath>
</defs>
</svg>
